<svg width="124" height="29" viewBox="0 0 124 29" fill="none" xmlns="http://www.w3.org/2000/svg">
<g clip-path="url(#clip0_16_22)">
<path d="M12.8686 16.0957H6.02329L9.33552 5.78412L12.8686 16.0957L13.3102 17.8146C14.5339 21.415 15.649 25.266 16.6224 28.7039C17.0696 28.5559 17.594 28.4748 18.1681 28.4198C18.7091 28.4748 19.2023 28.5583 19.7138 28.7039L10.4396 0.624765H9.77715L0.0612793 28.7039C0.42416 28.5782 0.792966 28.4833 1.16536 28.4198C1.61251 28.4748 1.95293 28.5583 2.49025 28.7039C3.25022 24.8291 4.3635 21.2956 5.36085 17.8146H13.3102L12.8686 16.0957ZM37.5999 26.6961C35.7082 28.4748 33.1725 29.0764 30.7546 28.9904C24.0216 29.0764 19.942 23.5016 19.9347 14.6656C19.942 5.69339 25.0741 0.562691 31.636 0.624765C33.8497 0.562691 36.1701 1.24312 38.2605 2.34614C37.959 3.36443 37.7371 4.41942 37.598 5.49523H37.3772C36.9411 4.81002 34.6557 2.08352 31.4152 2.05964C25.7826 2.0859 22.969 8.06177 23.0242 14.9497C22.969 22.5801 26.3696 27.515 31.1944 27.5556C34.5931 27.5126 37.1895 24.9461 37.8189 24.4041L37.5999 26.6961V26.6961ZM43.5619 16.3869C43.4956 23.5852 45.0395 27.2333 50.4072 27.2738C55.2412 27.2333 57.8321 22.6206 57.9149 16.098V1.20015C58.1099 1.20254 58.3878 1.28371 58.7981 1.20015C58.9766 1.28371 59.2545 1.20254 59.4606 1.20015V17.244C59.5636 25.0678 55.1492 29.0788 49.7447 28.9928C46.6478 29.0788 44.6071 28.1572 42.8994 26.4144C41.052 23.9863 40.8054 20.417 40.6913 17.244V1.20015C41.2065 1.20254 41.6702 1.28371 42.237 1.20015C42.5682 1.28371 42.9988 1.20254 43.5619 1.20015V16.3869ZM72.9303 24.12H73.153L81.5421 1.19776C81.8899 1.20015 82.2616 1.28132 82.6462 1.19776C83.0013 1.28132 83.3749 1.20015 83.754 1.19776C82.7879 3.60912 74.7116 24.1439 73.5965 28.7039C73.3884 28.5629 73.1641 28.4669 72.9322 28.4198C72.7666 28.4748 72.5513 28.5583 72.2716 28.7039C68.8066 19.1731 63.6064 4.57127 62.3349 1.19776C62.7084 1.20015 63.2347 1.28132 63.6598 1.19776C64.2247 1.28132 64.6884 1.20015 65.2055 1.19776L72.9303 24.12ZM110.027 13.2307H114.664C115.702 13.1137 116.598 12.9537 117.537 12.9466C117.498 13.2331 117.432 13.5936 117.537 14.0902C117.432 14.2764 117.498 14.6369 117.537 14.9473C116.598 15.038 115.704 14.878 114.664 14.9473H110.027V26.6937C111.867 26.6674 113.722 26.5122 115.548 26.4096C116.536 26.3881 117.463 26.2663 118.42 26.1255C118.391 26.5122 118.33 26.8704 118.42 27.2691C118.33 27.6726 118.391 28.0713 118.42 28.4151H107.157V1.19776H118.197C118.205 1.60125 118.148 1.95937 118.197 2.34375C118.148 2.76634 118.205 3.16266 118.197 3.48736C117.321 3.31614 116.436 3.22123 115.55 3.20325L112.458 2.91436H110.029V13.2307H110.027V13.2307ZM121.291 2.05964H121.951C122.283 1.96892 122.608 2.10978 122.612 2.63264C122.608 3.1555 122.202 3.20563 121.729 3.20563H121.291V3.48974H121.951L122.614 4.92462H122.836L122.172 3.48974C122.538 3.37753 122.824 3.12685 122.836 2.63264C122.822 2.03338 122.577 1.72778 121.953 1.77314H121.07V4.92462H121.293V2.05964H121.291V2.05964Z" fill="white"/>
<path d="M121.951 0.624756C123.004 0.627143 123.931 1.83043 123.939 3.20563C123.931 4.8124 123.004 6.01569 121.951 6.06822C120.704 6.01569 119.776 4.8124 119.741 3.20563C119.778 1.83043 120.704 0.627143 121.951 0.624756V0.913641C120.787 0.863504 119.99 1.93071 119.964 3.20563C119.99 4.68109 120.798 5.77694 121.951 5.78411C122.921 5.77694 123.72 4.67631 123.716 3.20563C123.72 1.93787 122.925 0.865892 121.951 0.913641V0.624756ZM89.2708 16.3869C89.1769 23.5852 90.7226 27.2333 96.1142 27.2738C100.922 27.2333 103.513 22.6206 103.622 16.098V1.20014C103.791 1.20253 104.071 1.2837 104.286 1.20014C104.656 1.2837 104.934 1.20253 105.168 1.20014V17.244C105.243 25.0678 100.834 29.0788 95.4536 28.9928C92.3309 29.0788 90.2883 28.1572 88.6065 26.4143C86.7332 23.9863 86.4866 20.417 86.4001 17.244V1.20014C86.8896 1.20253 87.3533 1.2837 87.7269 1.20014C88.2476 1.2837 88.6837 1.20253 89.2726 1.20014V16.3869H89.2708V16.3869Z" fill="white"/>
</g>
<defs>
<clipPath id="clip0_16_22">
<rect width="124" height="28.38" fill="white" transform="translate(0 0.619995)"/>
</clipPath>
</defs>
</svg>
